<mxfile host="app.diagrams.net" modified="2022-05-27T22:04:51.497Z" agent="5.0 (Windows NT 10.0; Win64; x64) AppleWebKit/537.36 (KHTML, like Gecko) Chrome/101.0.4951.67 Safari/537.36" etag="XaKKDGOd3ZmRjr_5nEma" version="18.1.3" type="github">
  <diagram name="Page-1" id="e7e014a7-5840-1c2e-5031-d8a46d1fe8dd">
    <mxGraphModel dx="1108" dy="482" grid="1" gridSize="10" guides="1" tooltips="1" connect="1" arrows="1" fold="1" page="1" pageScale="1" pageWidth="1169" pageHeight="826" background="none" math="0" shadow="0">
      <root>
        <mxCell id="0" />
        <mxCell id="1" parent="0" />
        <mxCell id="2" value="Thread 1" style="swimlane;whiteSpace=wrap" parent="1" vertex="1">
          <mxGeometry x="164.5" y="128" width="280" height="570" as="geometry" />
        </mxCell>
        <object label="Mesero&lt;br&gt;" id="hcg0SQ3sUNdb5qGJilxw-41">
          <mxCell style="shape=umlActor;verticalLabelPosition=bottom;verticalAlign=top;html=1;outlineConnect=0;" vertex="1" parent="2">
            <mxGeometry x="175.5" y="110" width="30" height="32" as="geometry" />
          </mxCell>
        </object>
        <mxCell id="6" value="" style="edgeStyle=elbowEdgeStyle;elbow=horizontal;verticalAlign=bottom;endArrow=open;endSize=8;strokeColor=#FF0000;endFill=1;rounded=0;entryX=0.495;entryY=-0.06;entryDx=0;entryDy=0;entryPerimeter=0;" parent="2" target="7" edge="1">
          <mxGeometry x="100" y="40" as="geometry">
            <mxPoint x="115" y="110" as="targetPoint" />
            <mxPoint x="115" y="70" as="sourcePoint" />
          </mxGeometry>
        </mxCell>
        <mxCell id="7" value="GuardarPedido" style="" parent="2" vertex="1">
          <mxGeometry x="60" y="110" width="110" height="50" as="geometry" />
        </mxCell>
        <mxCell id="8" value="VerPedidosActuales" style="" parent="2" vertex="1">
          <mxGeometry x="60" y="220" width="110" height="50" as="geometry" />
        </mxCell>
        <mxCell id="9" value="" style="endArrow=open;strokeColor=#FF0000;endFill=1;rounded=0" parent="2" edge="1">
          <mxGeometry relative="1" as="geometry">
            <mxPoint x="115.5" y="162" as="sourcePoint" />
            <mxPoint x="115.5" y="222" as="targetPoint" />
          </mxGeometry>
        </mxCell>
        <mxCell id="10" value="TabladePedidos&#xa;Actuales" style="fillColor=#FF3333;" parent="2" vertex="1">
          <mxGeometry x="60" y="332" width="110" height="50" as="geometry" />
        </mxCell>
        <mxCell id="11" value="" style="endArrow=open;strokeColor=#FF0000;endFill=1;rounded=0;entryX=0.505;entryY=-0.08;entryDx=0;entryDy=0;entryPerimeter=0;" parent="2" target="10" edge="1">
          <mxGeometry relative="1" as="geometry">
            <mxPoint x="115.5" y="272" as="sourcePoint" />
            <mxPoint x="115.5" y="322" as="targetPoint" />
          </mxGeometry>
        </mxCell>
        <mxCell id="12" value="" style="edgeStyle=elbowEdgeStyle;elbow=horizontal;strokeColor=#FF0000;endArrow=open;endFill=1;rounded=0;exitX=0.005;exitY=0.38;exitDx=0;exitDy=0;exitPerimeter=0;" parent="2" source="7" edge="1">
          <mxGeometry width="100" height="100" relative="1" as="geometry">
            <mxPoint x="55.5" y="132" as="sourcePoint" />
            <mxPoint x="55.5" y="352" as="targetPoint" />
            <Array as="points">
              <mxPoint x="30" y="250" />
            </Array>
          </mxGeometry>
        </mxCell>
        <object label="Jefe de cocina" id="hcg0SQ3sUNdb5qGJilxw-42">
          <mxCell style="shape=umlActor;verticalLabelPosition=bottom;verticalAlign=top;html=1;outlineConnect=0;" vertex="1" parent="2">
            <mxGeometry x="205.5" y="220" width="30" height="32" as="geometry" />
          </mxCell>
        </object>
        <mxCell id="hcg0SQ3sUNdb5qGJilxw-43" value="" style="edgeStyle=elbowEdgeStyle;elbow=horizontal;verticalAlign=bottom;endArrow=open;endSize=8;strokeColor=#FF0000;endFill=1;rounded=0;" edge="1" parent="2">
          <mxGeometry x="26" y="-6" as="geometry">
            <mxPoint x="175.5" y="242" as="targetPoint" />
            <mxPoint x="185.5" y="242" as="sourcePoint" />
            <Array as="points">
              <mxPoint x="206" y="242" />
              <mxPoint x="226" y="162" />
            </Array>
          </mxGeometry>
        </mxCell>
        <mxCell id="hcg0SQ3sUNdb5qGJilxw-45" value="GET" style="text;html=1;align=center;verticalAlign=middle;resizable=0;points=[];autosize=1;strokeColor=none;fillColor=none;" vertex="1" parent="2">
          <mxGeometry x="120" y="292" width="40" height="20" as="geometry" />
        </mxCell>
        <mxCell id="hcg0SQ3sUNdb5qGJilxw-46" value="POST" style="text;html=1;align=center;verticalAlign=middle;resizable=0;points=[];autosize=1;strokeColor=none;fillColor=none;" vertex="1" parent="2">
          <mxGeometry x="25.5" y="182" width="50" height="20" as="geometry" />
        </mxCell>
        <mxCell id="hcg0SQ3sUNdb5qGJilxw-53" value="" style="endArrow=open;strokeColor=#FF0000;endFill=1;rounded=0;exitX=0.341;exitY=0.98;exitDx=0;exitDy=0;exitPerimeter=0;" edge="1" parent="2" source="15">
          <mxGeometry relative="1" as="geometry">
            <mxPoint x="335.5" y="172" as="sourcePoint" />
            <mxPoint x="175.5" y="332" as="targetPoint" />
            <Array as="points">
              <mxPoint x="275.5" y="262" />
              <mxPoint x="240" y="293" />
            </Array>
          </mxGeometry>
        </mxCell>
        <mxCell id="hcg0SQ3sUNdb5qGJilxw-77" value="" style="ellipse;shape=endState;fillColor=#000000;strokeColor=#ff0000" vertex="1" parent="2">
          <mxGeometry x="100" y="42" width="30" height="30" as="geometry" />
        </mxCell>
        <mxCell id="hcg0SQ3sUNdb5qGJilxw-78" value="Inicia el proceso" style="text;html=1;align=center;verticalAlign=middle;resizable=0;points=[];autosize=1;strokeColor=none;fillColor=none;" vertex="1" parent="2">
          <mxGeometry x="65" y="22" width="100" height="20" as="geometry" />
        </mxCell>
        <mxCell id="3" value="Thread 2" style="swimlane;whiteSpace=wrap" parent="1" vertex="1">
          <mxGeometry x="444.5" y="128" width="280" height="570" as="geometry" />
        </mxCell>
        <mxCell id="15" value="AsginaPedidoListo" style="" parent="3" vertex="1">
          <mxGeometry x="20" y="110" width="110" height="50" as="geometry" />
        </mxCell>
        <mxCell id="16" value="ConsultaPedido" style="" parent="3" vertex="1">
          <mxGeometry x="20" y="220" width="110" height="50" as="geometry" />
        </mxCell>
        <mxCell id="17" value="" style="endArrow=open;strokeColor=#FF0000;endFill=1;rounded=0" parent="3" edge="1">
          <mxGeometry relative="1" as="geometry">
            <mxPoint x="75.5" y="162" as="sourcePoint" />
            <mxPoint x="75.5" y="222" as="targetPoint" />
          </mxGeometry>
        </mxCell>
        <mxCell id="18" value="Facturación" style="" parent="3" vertex="1">
          <mxGeometry x="20" y="325" width="110" height="50" as="geometry" />
        </mxCell>
        <mxCell id="19" value="" style="endArrow=open;strokeColor=#FF0000;endFill=1;rounded=0" parent="3" edge="1">
          <mxGeometry relative="1" as="geometry">
            <mxPoint x="75.5" y="272" as="sourcePoint" />
            <mxPoint x="75.5" y="322" as="targetPoint" />
          </mxGeometry>
        </mxCell>
        <mxCell id="21" value="Verificación" style="rhombus;fillColor=#ffffc0;strokeColor=#ff0000;" parent="3" vertex="1">
          <mxGeometry x="150" y="225" width="80" height="40" as="geometry" />
        </mxCell>
        <mxCell id="22" value="No" style="edgeStyle=elbowEdgeStyle;elbow=horizontal;align=left;verticalAlign=bottom;endArrow=open;endSize=8;strokeColor=#FF0000;exitX=0.5;exitY=0;endFill=1;rounded=0;entryX=0.75;entryY=0.5;entryPerimeter=0" parent="3" source="21" target="25" edge="1">
          <mxGeometry x="-1" relative="1" as="geometry">
            <mxPoint x="160" y="150" as="targetPoint" />
            <Array as="points">
              <mxPoint x="190" y="180" />
            </Array>
          </mxGeometry>
        </mxCell>
        <mxCell id="23" value="Yes" style="edgeStyle=elbowEdgeStyle;elbow=horizontal;align=left;verticalAlign=top;endArrow=open;endSize=8;strokeColor=#FF0000;endFill=1;rounded=0;entryX=0.368;entryY=0.04;entryDx=0;entryDy=0;entryPerimeter=0;" parent="3" source="21" target="30" edge="1">
          <mxGeometry x="-1" relative="1" as="geometry">
            <mxPoint x="190" y="305" as="targetPoint" />
            <Array as="points">
              <mxPoint x="190" y="292" />
            </Array>
          </mxGeometry>
        </mxCell>
        <mxCell id="24" value="" style="endArrow=open;strokeColor=#FF0000;endFill=1;rounded=0;exitX=0.995;exitY=0.48;exitDx=0;exitDy=0;exitPerimeter=0;" parent="3" source="16" target="21" edge="1">
          <mxGeometry relative="1" as="geometry" />
        </mxCell>
        <mxCell id="25" value="" style="shape=line;strokeWidth=6;strokeColor=#ff0000;rotation=90" parent="3" vertex="1">
          <mxGeometry x="130" y="127.5" width="50" height="15" as="geometry" />
        </mxCell>
        <mxCell id="26" value="" style="edgeStyle=elbowEdgeStyle;elbow=horizontal;verticalAlign=bottom;endArrow=open;endSize=8;strokeColor=#FF0000;endFill=1;rounded=0" parent="3" source="25" edge="1">
          <mxGeometry x="130" y="90" as="geometry">
            <mxPoint x="130.5" y="135" as="targetPoint" />
          </mxGeometry>
        </mxCell>
        <mxCell id="30" value="PedidoEnEntrega" style="" parent="3" vertex="1">
          <mxGeometry x="150" y="325" width="110" height="50" as="geometry" />
        </mxCell>
        <mxCell id="31" value="Banco" style="shape=note;whiteSpace=wrap;size=17" parent="3" vertex="1">
          <mxGeometry x="105" y="490" width="100" height="50" as="geometry" />
        </mxCell>
        <mxCell id="32" value="" style="endArrow=none;strokeColor=#FF0000;endFill=0;rounded=0;dashed=1;exitX=0.532;exitY=1.06;exitDx=0;exitDy=0;exitPerimeter=0;" parent="3" source="18" target="31" edge="1">
          <mxGeometry relative="1" as="geometry" />
        </mxCell>
        <mxCell id="hcg0SQ3sUNdb5qGJilxw-51" value="GET" style="text;html=1;align=center;verticalAlign=middle;resizable=0;points=[];autosize=1;strokeColor=none;fillColor=none;" vertex="1" parent="3">
          <mxGeometry y="292" width="40" height="20" as="geometry" />
        </mxCell>
        <mxCell id="hcg0SQ3sUNdb5qGJilxw-52" value="PUT" style="text;html=1;align=center;verticalAlign=middle;resizable=0;points=[];autosize=1;strokeColor=none;fillColor=none;" vertex="1" parent="3">
          <mxGeometry y="172" width="40" height="20" as="geometry" />
        </mxCell>
        <mxCell id="hcg0SQ3sUNdb5qGJilxw-54" value="" style="ellipse;shape=endState;fillColor=#000000;strokeColor=#ff0000" vertex="1" parent="3">
          <mxGeometry x="60" y="52" width="30" height="30" as="geometry" />
        </mxCell>
        <mxCell id="hcg0SQ3sUNdb5qGJilxw-55" value="" style="edgeStyle=elbowEdgeStyle;elbow=horizontal;verticalAlign=bottom;endArrow=open;endSize=8;strokeColor=#FF0000;endFill=1;rounded=0;exitX=0.5;exitY=1;exitDx=0;exitDy=0;" edge="1" parent="3" source="hcg0SQ3sUNdb5qGJilxw-54">
          <mxGeometry x="-334.5" y="-78" as="geometry">
            <mxPoint x="75.5" y="112" as="targetPoint" />
            <mxPoint x="85.5" y="92" as="sourcePoint" />
          </mxGeometry>
        </mxCell>
        <mxCell id="hcg0SQ3sUNdb5qGJilxw-56" value="Tabla&#xa;Pagos" style="fillColor=#FF3333;" vertex="1" parent="3">
          <mxGeometry x="10" y="490" width="85.5" height="50" as="geometry" />
        </mxCell>
        <mxCell id="20" value="" style="endArrow=open;strokeColor=#FF0000;endFill=1;rounded=0;entryX=0.579;entryY=0;entryDx=0;entryDy=0;entryPerimeter=0;exitX=0.377;exitY=1.02;exitDx=0;exitDy=0;exitPerimeter=0;" parent="3" source="18" target="hcg0SQ3sUNdb5qGJilxw-56" edge="1">
          <mxGeometry relative="1" as="geometry">
            <mxPoint x="75.5" y="382" as="sourcePoint" />
            <mxPoint x="15.5" y="349" as="targetPoint" />
          </mxGeometry>
        </mxCell>
        <mxCell id="hcg0SQ3sUNdb5qGJilxw-58" value="POST" style="text;html=1;align=center;verticalAlign=middle;resizable=0;points=[];autosize=1;strokeColor=none;fillColor=none;" vertex="1" parent="3">
          <mxGeometry x="10" y="422" width="50" height="20" as="geometry" />
        </mxCell>
        <mxCell id="hcg0SQ3sUNdb5qGJilxw-60" value="" style="endArrow=open;strokeColor=#FF0000;endFill=1;rounded=0;entryX=0.014;entryY=0.54;entryDx=0;entryDy=0;entryPerimeter=0;" edge="1" parent="3" target="30">
          <mxGeometry relative="1" as="geometry">
            <mxPoint x="135.5" y="352" as="sourcePoint" />
            <mxPoint x="140.5" y="351" as="targetPoint" />
            <Array as="points">
              <mxPoint x="135.5" y="352" />
            </Array>
          </mxGeometry>
        </mxCell>
        <object label="Mesero&lt;br&gt;" id="hcg0SQ3sUNdb5qGJilxw-64">
          <mxCell style="shape=umlActor;verticalLabelPosition=bottom;verticalAlign=top;html=1;outlineConnect=0;" vertex="1" parent="3">
            <mxGeometry x="230" y="272" width="30" height="32" as="geometry" />
          </mxCell>
        </object>
        <object label="Mesero&lt;br&gt;" id="hcg0SQ3sUNdb5qGJilxw-70">
          <mxCell style="shape=umlActor;verticalLabelPosition=bottom;verticalAlign=top;html=1;outlineConnect=0;" vertex="1" parent="3">
            <mxGeometry x="90" y="172" width="30" height="28" as="geometry" />
          </mxCell>
        </object>
        <mxCell id="hcg0SQ3sUNdb5qGJilxw-63" value="PUT" style="text;html=1;align=center;verticalAlign=middle;resizable=0;points=[];autosize=1;strokeColor=none;fillColor=none;" vertex="1" parent="3">
          <mxGeometry x="150" y="382" width="40" height="20" as="geometry" />
        </mxCell>
        <mxCell id="4" value="Thread 3" style="swimlane;whiteSpace=wrap" parent="1" vertex="1">
          <mxGeometry x="724.5" y="128" width="325.5" height="570" as="geometry" />
        </mxCell>
        <mxCell id="33" value="LiberarPedido" style="" parent="4" vertex="1">
          <mxGeometry x="90" y="405" width="110" height="50" as="geometry" />
        </mxCell>
        <mxCell id="37" value="" style="edgeStyle=none;strokeColor=#FF0000;endArrow=open;endFill=1;rounded=0;exitX=0.577;exitY=0.98;exitDx=0;exitDy=0;exitPerimeter=0;" parent="4" edge="1" source="30">
          <mxGeometry width="100" height="100" relative="1" as="geometry">
            <mxPoint x="-64.5" y="382" as="sourcePoint" />
            <mxPoint x="85.5" y="432" as="targetPoint" />
            <Array as="points">
              <mxPoint x="-66.5" y="432" />
            </Array>
          </mxGeometry>
        </mxCell>
        <mxCell id="38" value="" style="ellipse;shape=endState;fillColor=#000000;strokeColor=#ff0000" parent="4" vertex="1">
          <mxGeometry x="130" y="500" width="30" height="30" as="geometry" />
        </mxCell>
        <mxCell id="39" value="" style="endArrow=open;strokeColor=#FF0000;endFill=1;rounded=0;exitX=0.514;exitY=1;exitDx=0;exitDy=0;exitPerimeter=0;" parent="4" source="33" target="38" edge="1">
          <mxGeometry relative="1" as="geometry">
            <mxPoint x="145.5" y="462" as="sourcePoint" />
          </mxGeometry>
        </mxCell>
        <object label="Mesero&lt;br&gt;" id="hcg0SQ3sUNdb5qGJilxw-71">
          <mxCell style="shape=umlActor;verticalLabelPosition=bottom;verticalAlign=top;html=1;outlineConnect=0;" vertex="1" parent="4">
            <mxGeometry x="130" y="352" width="30" height="32" as="geometry" />
          </mxCell>
        </object>
        <mxCell id="hcg0SQ3sUNdb5qGJilxw-76" value="DELETE" style="text;html=1;align=center;verticalAlign=middle;resizable=0;points=[];autosize=1;strokeColor=none;fillColor=none;" vertex="1" parent="4">
          <mxGeometry x="40.5" y="455" width="60" height="20" as="geometry" />
        </mxCell>
        <mxCell id="hcg0SQ3sUNdb5qGJilxw-80" value="Finaliza el proceso" style="text;html=1;align=center;verticalAlign=middle;resizable=0;points=[];autosize=1;strokeColor=none;fillColor=none;" vertex="1" parent="4">
          <mxGeometry x="85" y="532" width="120" height="20" as="geometry" />
        </mxCell>
        <mxCell id="hcg0SQ3sUNdb5qGJilxw-83" value="" style="edgeStyle=none;strokeColor=#FF0000;endArrow=open;endFill=1;rounded=0;exitX=1.005;exitY=0.56;exitDx=0;exitDy=0;exitPerimeter=0;" edge="1" parent="4" source="33">
          <mxGeometry width="100" height="100" relative="1" as="geometry">
            <mxPoint x="195.5" y="312" as="sourcePoint" />
            <mxPoint x="235.5" y="433" as="targetPoint" />
            <Array as="points" />
          </mxGeometry>
        </mxCell>
        <mxCell id="hcg0SQ3sUNdb5qGJilxw-84" value="TablaDePedidos&#xa;Entregados" style="fillColor=#FF3333;" vertex="1" parent="4">
          <mxGeometry x="235.5" y="405" width="85.5" height="50" as="geometry" />
        </mxCell>
        <mxCell id="hcg0SQ3sUNdb5qGJilxw-49" value="" style="endArrow=classic;html=1;rounded=0;" edge="1" parent="1">
          <mxGeometry width="50" height="50" relative="1" as="geometry">
            <mxPoint x="400" y="350" as="sourcePoint" />
            <mxPoint x="500" y="200" as="targetPoint" />
            <Array as="points">
              <mxPoint x="400" y="200" />
            </Array>
          </mxGeometry>
        </mxCell>
        <mxCell id="hcg0SQ3sUNdb5qGJilxw-50" value="" style="endArrow=open;strokeColor=#FF0000;endFill=1;rounded=0;exitX=0.459;exitY=1.02;exitDx=0;exitDy=0;exitPerimeter=0;" edge="1" parent="1" source="16">
          <mxGeometry relative="1" as="geometry">
            <mxPoint x="529.5" y="298" as="sourcePoint" />
            <mxPoint x="340" y="470" as="targetPoint" />
            <Array as="points">
              <mxPoint x="410" y="440" />
            </Array>
          </mxGeometry>
        </mxCell>
        <mxCell id="41" value="" style="edgeStyle=elbowEdgeStyle;elbow=horizontal;strokeColor=#FF0000;endArrow=open;endFill=1;rounded=0;exitX=0.486;exitY=1;exitDx=0;exitDy=0;exitPerimeter=0;entryX=0.486;entryY=1.02;entryDx=0;entryDy=0;entryPerimeter=0;" parent="1" source="30" target="10" edge="1">
          <mxGeometry width="100" height="100" relative="1" as="geometry">
            <mxPoint x="640" y="510" as="sourcePoint" />
            <mxPoint x="280" y="546" as="targetPoint" />
            <Array as="points">
              <mxPoint x="639.5" y="528" />
            </Array>
          </mxGeometry>
        </mxCell>
        <mxCell id="hcg0SQ3sUNdb5qGJilxw-73" value="" style="edgeStyle=elbowEdgeStyle;elbow=horizontal;strokeColor=#FF0000;endArrow=open;endFill=1;rounded=0;exitX=0.341;exitY=1;exitDx=0;exitDy=0;exitPerimeter=0;entryX=0.323;entryY=1;entryDx=0;entryDy=0;entryPerimeter=0;" edge="1" parent="1" source="33" target="10">
          <mxGeometry width="100" height="100" relative="1" as="geometry">
            <mxPoint x="870" y="590" as="sourcePoint" />
            <mxPoint x="260" y="570" as="targetPoint" />
            <Array as="points">
              <mxPoint x="550" y="600" />
            </Array>
          </mxGeometry>
        </mxCell>
      </root>
    </mxGraphModel>
  </diagram>
</mxfile>
